# xmcd
#
# Track frame offsets: 
#        150
#        18366
#        35197
#        63154
#        79068
#        100766
#        122626
#        136610
#        158766
#
# Disc length: 2398 seconds
#
# Revision: 0
# Processed by: cddbd v1.5.2PL0 Copyright (c) Steve Scherf et al.
# Submitted via: ExactAudioCopy v1.3
#
DISCID=67095c09
DTITLE=Isaiah B Brunt - A Moment In Time
DYEAR=2016
DGENRE=Rhythm and Blues
TTITLE0=Still Waiting
TTITLE1=Singing The Blues
TTITLE2=That Place On The Road
TTITLE3=Lost Jacket Blues
TTITLE4=May I Dance With You
TTITLE5=Travel Back In Time
TTITLE6=Party Late All Night
TTITLE7=Same Old Road
TTITLE8=A Moment In Time
EXTD=
EXTT0=
EXTT1=
EXTT2=
EXTT3=
EXTT4=
EXTT5=
EXTT6=
EXTT7=
EXTT8=
PLAYORDER=
